<?xml version="1.0" encoding="utf-8"?>
<!-- Generator: Adobe Illustrator 16.0.0, SVG Export Plug-In . SVG Version: 6.00 Build 0)  -->
<!DOCTYPE svg PUBLIC "-//W3C//DTD SVG 1.1//EN" "http://www.w3.org/Graphics/SVG/1.1/DTD/svg11.dtd">
<svg version="1.1" id="_x34_4" xmlns="http://www.w3.org/2000/svg" xmlns:xlink="http://www.w3.org/1999/xlink" x="0px" y="0px"
	 width="15.871px" height="15.863px" viewBox="0 0 15.871 15.863" enable-background="new 0 0 15.871 15.863" xml:space="preserve">
<g>
	<path fill="#ff0000" d="M7.936,0C3.553,0,0,3.553,0,7.936c0,2.036,0.773,3.887,2.033,5.292l2.763-8.928h5.981
		c0.18,0.014,0.346,0.042,0.498,0.083c0.388,0.111,0.679,0.305,0.872,0.582c0.042,0.069,0.063,0.18,0.063,0.332
		c0,0.762-0.437,2.389-1.309,4.881c-0.249,0.665-0.581,0.997-0.997,0.997H6.894L5.265,15.4c0.836,0.299,1.732,0.471,2.671,0.471
		c4.382,0,7.936-3.553,7.936-7.936S12.317,0,7.936,0z"/>
	<path fill="#1867B2" d="M8.734,9.075c0.339-0.258,0.509-0.589,0.509-0.993c0-0.488-0.166-0.889-0.498-1.203
		c-0.333-0.313-0.748-0.47-1.247-0.47C7,6.409,6.581,6.573,6.242,6.901c-0.34,0.328-0.517,0.687-0.529,1.077
		C5.698,8.354,5.837,8.688,6.128,8.981c0.346,0.321,0.823,0.481,1.433,0.481C8.004,9.462,8.395,9.333,8.734,9.075z"/>
</g>
</svg>
