<?xml version="1.0" encoding="utf-8"?>
<!-- Generator: Adobe Illustrator 16.0.0, SVG Export Plug-In . SVG Version: 6.00 Build 0)  -->
<!DOCTYPE svg PUBLIC "-//W3C//DTD SVG 1.1//EN" "http://www.w3.org/Graphics/SVG/1.1/DTD/svg11.dtd">
<svg version="1.1" xmlns="http://www.w3.org/2000/svg" xmlns:xlink="http://www.w3.org/1999/xlink" x="0px" y="0px" width="168px"
	 height="168px" viewBox="0 0 168 168" enable-background="new 0 0 168 168" xml:space="preserve">
<g id="画板的参考线">
</g>
<g id="图层_1">
	<g id="白色笔体">
		<linearGradient id="SVGID_1_" gradientUnits="userSpaceOnUse" x1="43.6772" y1="82.1509" x2="116.833" y2="82.1509">
			<stop  offset="0" style="stop-color:#5D5D5D"/>
			<stop  offset="0.2463" style="stop-color:#ECECEC"/>
			<stop  offset="0.9901" style="stop-color:#F8F8F8"/>
		</linearGradient>
		<path fill="url(#SVGID_1_)" d="M103.734,17.7c-3.62,0.5-6.471,1.79-9.12,3.84c-8.391,6.47-11.761,18.23-16.081,28.8
			c-4.88,11.75-9.76,23.52-14.64,35.28c-3.26,8.199-3.9,13.949-7.88,21.27c-4.65,8.55-8.6,16.03-10.18,20.78
			c-1.52,4.55-2.28,17.391-2.14,17.84c0.54,0.601,0.79,1.25,3.16,1.07c5.76-3.97,12.35-8.681,16.32-14.88
			c4.03-6.32,5.8-14.931,9.84-21.36c12.57-20.05,26.301-39.26,38.64-60C117.284,40.86,122.394,17.17,103.734,17.7z M109.658,20.77
			c-0.089,0.283-0.49,0.41-0.896,0.283l-1.333-0.418c-0.405-0.127-0.663-0.46-0.574-0.744c0.09-0.283,0.491-0.41,0.896-0.282
			l1.333,0.418C109.49,20.153,109.748,20.486,109.658,20.77z"/>
	</g>
	
		<linearGradient id="蓝色LOGO片底色_1_" gradientUnits="userSpaceOnUse" x1="77.5508" y1="49.5825" x2="111.8594" y2="49.5825">
		<stop  offset="0" style="stop-color:#C5C5C5"/>
		<stop  offset="0.6946" style="stop-color:#F7F7F7"/>
	</linearGradient>
	<path id="蓝色LOGO片底色" fill-rule="evenodd" clip-rule="evenodd" fill="url(#蓝色LOGO片底色_1_)" d="M81.12,76.705
		c-0.802,0-1.513-0.223-2.111-0.664c-0.751-0.449-1.229-1.417-1.396-2.914C76.615,64.188,88.061,33.69,94.86,27.165
		c2.072-1.987,4.42-4.24,7.646-4.694l0.104-0.008l0.259-0.002c3.132,0,5.509,1.042,7.064,3.097
		c2.182,2.881,2.528,7.746,0.951,13.346c-3.702,13.145-12.861,24.421-19.893,31.566C88.191,73.314,84.207,76.705,81.12,76.705z"/>
	<path id="蓝色LOGO片" fill-rule="evenodd" clip-rule="evenodd" fill="#2061AD" d="M102.625,23.313
		c8.404-0.153,9.623,7.61,7.44,15.36c-3.43,12.173-11.77,23.161-19.68,31.2c-2.118,2.152-7.92,7.656-10.874,5.484
		c-5.104-3.078,8.524-40.465,15.937-47.578C97.597,25.718,99.761,23.715,102.625,23.313z"/>
	<g id="蓝壳反光2">
		<path fill-rule="evenodd" clip-rule="evenodd" fill="#2B6EB7" d="M104.194,44.075c2.567,2.483,0.255,5.594-0.72,8.4
			c-0.16,0-0.319,0-0.48,0c-0.319-0.88-0.639-1.76-0.959-2.64C102.755,47.915,103.475,45.995,104.194,44.075z"/>
		<path fill-rule="evenodd" clip-rule="evenodd" fill="#2B6EB7" d="M92.689,39.44c1.68,0.16,3.359,0.32,5.039,0.48
			c-0.96,1.76-1.919,3.521-2.88,5.28c-1.919,0-3.84,0-5.76,0c0.08-0.24,0.16-0.48,0.24-0.72
			C90.448,42.801,91.568,41.12,92.689,39.44z"/>
		<path fill-rule="evenodd" clip-rule="evenodd" fill="#2B6EB7" d="M91.03,39.44c0.239,0,0.48,0,0.72,0
			c-1.588,3.299-2.881,5.38-6,7.2C86.795,43.148,88.328,41.318,91.03,39.44z"/>
		<path fill-rule="evenodd" clip-rule="evenodd" fill="#2B6EB7" d="M98.689,40.041c0.399,0.16,0.8,0.32,1.2,0.48
			c-0.801,1.84-1.601,3.68-2.4,5.52c-0.48-0.16-0.961-0.32-1.44-0.48C96.929,43.721,97.81,41.88,98.689,40.041z"/>
		<path fill-rule="evenodd" clip-rule="evenodd" fill="#2B6EB7" d="M100.877,41.361c3.71,1.149,2.302,5.175,0.479,7.68
			c-0.639-0.64-1.279-1.28-1.92-1.92c-0.319-0.24-0.64-0.48-0.959-0.72C99.277,44.721,100.077,43.041,100.877,41.361z"/>
	</g>
	<g id="蓝壳反光1">
		<path fill-rule="evenodd" clip-rule="evenodd" fill="#6099D2" d="M108.02,37.013c2.567,2.483,0.255,5.594-0.72,8.4
			c-0.16,0-0.319,0-0.48,0c-0.319-0.88-0.639-1.76-0.959-2.64C106.58,40.853,107.301,38.932,108.02,37.013z"/>
		<path fill-rule="evenodd" clip-rule="evenodd" fill="#6099D2" d="M96.5,32.42c1.68,0.16,3.36,0.32,5.04,0.48
			c-0.96,1.76-1.92,3.521-2.88,5.28c-1.92,0-3.841,0-5.761,0c0.081-0.24,0.161-0.48,0.24-0.72C94.26,35.78,95.38,34.1,96.5,32.42z"
			/>
		<path fill-rule="evenodd" clip-rule="evenodd" fill="#6099D2" d="M94.369,31.94c0.24,0,0.479,0,0.72,0
			c-1.588,3.299-2.88,5.38-6,7.2C90.135,35.648,91.667,33.818,94.369,31.94z"/>
		<path fill-rule="evenodd" clip-rule="evenodd" fill="#6099D2" d="M102.5,33.14c0.399,0.16,0.8,0.32,1.2,0.48
			c-0.801,1.84-1.601,3.68-2.4,5.52c-0.48-0.16-0.96-0.32-1.439-0.48C100.739,36.82,101.62,34.98,102.5,33.14z"/>
		<path fill-rule="evenodd" clip-rule="evenodd" fill="#6099D2" d="M104.448,34.34c3.711,1.149,2.303,5.175,0.48,7.68
			c-0.64-0.64-1.28-1.28-1.92-1.92c-0.319-0.24-0.64-0.48-0.96-0.72C102.849,37.701,103.648,36.02,104.448,34.34z"/>
	</g>
	<g id="蓝壳反光线">
		<path fill="#6099D2" d="M90.352,68.358c0,0-0.764,1.049-1.63,2.023c-0.96,1.08-2.254,2.011-2.556,2.225
			c-0.546,0.387-4.918,3.393-4.263,2.091c0.378-0.75,2.885-2.141,3.635-2.717c0.211-0.161,1.222-0.944,2.318-1.749
			C89.248,69.212,90.466,68.215,90.352,68.358z"/>
	</g>
	<g id="第四个按钮黑底">
		<circle fill="#707071" cx="64.992" cy="106.313" r="2.438"/>
	</g>
	<g id="第四个按钮黑-">
		
			<line fill="#3A3C43" stroke="#3A3C43" stroke-width="0.25" stroke-miterlimit="10" x1="63.799" y1="106.092" x2="66.171" y2="107.199"/>
	</g>
	<g id="第四个按钮白-">
		
			<line fill="none" stroke="#BBBBBC" stroke-width="0.25" stroke-miterlimit="10" x1="63.813" y1="105.864" x2="66.185" y2="106.972"/>
	</g>
	<g id="第三个按钮底图">
		<circle fill="#707071" cx="68.394" cy="99.13" r="2.438"/>
	</g>
	<g id="第三个按钮黑_x2B_">
		<path fill="none" d="M69.847,99.135"/>
		<path fill="none" d="M66.332,98.955"/>
		<path fill="none" d="M68.17,100.841"/>
		
			<line fill="none" stroke="#3A3C43" stroke-width="0.25" stroke-miterlimit="10" x1="67.025" y1="98.724" x2="69.715" y2="99.866"/>
		
			<line fill="none" stroke="#3A3C43" stroke-width="0.25" stroke-miterlimit="10" x1="69.104" y1="97.951" x2="67.825" y2="100.699"/>
	</g>
	<g id="第三个按钮白_x2B_">
		<path fill="none" d="M69.847,99.135"/>
		<path fill="none" d="M66.332,98.955"/>
		<path fill="none" d="M68.17,100.841"/>
		<path fill="none" d="M68.17,97.915"/>
		
			<line fill="none" stroke="#BBBBBC" stroke-width="0.25" stroke-miterlimit="10" x1="66.941" y1="98.559" x2="69.631" y2="99.702"/>
		
			<line fill="none" stroke="#BBBBBC" stroke-width="0.25" stroke-miterlimit="10" x1="68.884" y1="97.783" x2="67.605" y2="100.531"/>
	</g>
	<g id="第二个按钮底图">
		<circle fill="#707071" cx="71.892" cy="91.997" r="2.437"/>
	</g>
	<g id="第二个按钮外方框黑">
		<polygon fill="none" stroke="#3A3C43" stroke-width="0.25" stroke-miterlimit="10" points="72.576,93.902 70.114,92.73 
			71.169,90.527 73.68,91.591 		"/>
	</g>
	<g id="第二个按钮外方框白">
		
			<rect x="70.513" y="90.776" transform="matrix(0.901 0.4337 -0.4337 0.901 47.0104 -22.049)" fill="#707071" stroke="#BBBBBC" stroke-width="0.25" stroke-miterlimit="10" width="2.621" height="2.437"/>
	</g>
	<g id="第二个按钮内黑圈">
		<path fill="none" stroke="#3A3C43" stroke-width="0.25" stroke-miterlimit="10" d="M72.816,92.137
			c0,0.452-0.367,0.819-0.819,0.819l0,0c-0.452,0-0.819-0.367-0.819-0.819l0,0c0-0.452,0.367-0.819,0.819-0.819l0,0
			C72.45,91.317,72.816,91.685,72.816,92.137L72.816,92.137z"/>
	</g>
	<g id="第二个按钮内白圈">
		<path fill="none" stroke="#BBBBBC" stroke-width="0.25" stroke-miterlimit="10" d="M72.716,91.994
			c0,0.452-0.367,0.818-0.819,0.818l0,0c-0.452,0-0.819-0.366-0.819-0.818l0,0c0-0.452,0.367-0.819,0.819-0.819l0,0
			C72.349,91.175,72.716,91.542,72.716,91.994L72.716,91.994z"/>
	</g>
	<g id="第一按钮底色">
		<g id="XMLID_1_">
			<g>
				<path fill="#707071" d="M75.84,81.13c1.71,0,3.1,1.39,3.1,3.101c0,1.709-1.39,3.1-3.1,3.1s-3.1-1.391-3.1-3.1
					C72.74,82.52,74.13,81.13,75.84,81.13z"/>
			</g>
		</g>
	</g>
	<g id="第一个按钮黑层2">
		<g>
			<g>
				<g>
					<path fill="none" stroke="#3A3C43" stroke-width="0.25" stroke-miterlimit="10" d="M77.762,84.453
						c0,1.016-0.793,1.837-1.771,1.837c-0.979,0-1.771-0.821-1.771-1.837c0-1.014,0.793-1.836,1.771-1.836
						c0.452,0,0.864,0.175,1.177,0.464"/>
					<g>
						<polygon fill="#3A3C43" points="75.931,82.93 76.934,82.854 77.576,82.079 77.762,84.453 						"/>
					</g>
				</g>
			</g>
		</g>
	</g>
	<g id="第一个按钮白层2">
		<g>
			<g>
				<g>
					<path fill="none" stroke="#3A3C43" stroke-width="0.25" stroke-miterlimit="10" d="M74.219,84.18
						c0-1.015,0.793-1.837,1.771-1.837c0.978,0,1.771,0.822,1.771,1.837c0,1.014-0.793,1.836-1.771,1.836
						c-0.452,0-0.864-0.175-1.177-0.464"/>
					<g>
						<polygon fill="#3A3C43" points="76.05,85.703 75.047,85.779 74.405,86.554 74.219,84.18 						"/>
					</g>
				</g>
			</g>
		</g>
		<g id="第一个按钮黑层1">
			<g>
				<g>
					<path fill="none" stroke="#BBBBBC" stroke-width="0.25" stroke-miterlimit="10" d="M77.55,84.18
						c0,1.014-0.793,1.836-1.771,1.836c-0.978,0-1.771-0.822-1.771-1.836c0-1.015,0.793-1.837,1.771-1.837
						c0.452,0,0.864,0.175,1.177,0.464"/>
					<g>
						<polygon fill="#BBBBBC" points="75.72,82.655 76.723,82.579 77.364,81.805 77.55,84.18 						"/>
					</g>
				</g>
			</g>
		</g>
	</g>
	<g id="第一个按钮白层">
		<g>
			<g>
				<g>
					<path fill="none" stroke="#BBBBBC" stroke-width="0.25" stroke-miterlimit="10" d="M74.008,84.18
						c0-1.015,0.793-1.837,1.771-1.837c0.979,0,1.771,0.822,1.771,1.837c0,1.014-0.793,1.836-1.771,1.836
						c-0.452,0-0.864-0.175-1.177-0.464"/>
					<g>
						<polygon fill="#BBBBBC" points="75.838,85.703 74.835,85.779 74.194,86.554 74.008,84.18 						"/>
					</g>
				</g>
			</g>
		</g>
	</g>
	<g id="笔头装饰白线">
		<g>
			<path fill="#F0F2F7" d="M44.438,135.656c0,0,0.08,0.175,0.219,0.479c0.069,0.152,0.154,0.338,0.251,0.55
				c0.108,0.206,0.284,0.402,0.438,0.639c0.081,0.115,0.165,0.234,0.252,0.358c0.094,0.119,0.223,0.216,0.337,0.33
				c0.25,0.206,0.459,0.485,0.766,0.664c0.297,0.191,0.604,0.389,0.916,0.589c0.342,0.146,0.69,0.292,1.038,0.44
				c0.336,0.176,0.716,0.241,1.071,0.354c0.361,0.092,0.707,0.228,1.061,0.276c0.704,0.108,1.354,0.272,1.923,0.328
				c1.14,0.127,1.9,0.212,1.9,0.212s-0.766-0.029-1.915-0.072c-0.289-0.003-0.596-0.064-0.923-0.105
				c-0.327-0.047-0.672-0.097-1.029-0.149c-0.358-0.045-0.712-0.177-1.081-0.266c-0.363-0.109-0.749-0.17-1.098-0.346
				c-0.354-0.156-0.708-0.313-1.057-0.468c-0.319-0.212-0.633-0.419-0.936-0.621c-0.315-0.185-0.522-0.488-0.768-0.712
				c-0.113-0.122-0.238-0.227-0.331-0.354c-0.085-0.134-0.167-0.262-0.246-0.385c-0.151-0.249-0.312-0.466-0.402-0.68
				c-0.08-0.22-0.149-0.411-0.207-0.567C44.503,135.836,44.438,135.656,44.438,135.656z"/>
		</g>
	</g>
	<g id="笔头装饰黑线">
		<g>
			<path fill="#848484" d="M44.437,135.642c0,0,0.083,0.17,0.23,0.467c0.083,0.143,0.14,0.344,0.286,0.521
				c0.133,0.185,0.282,0.393,0.446,0.619c0.194,0.202,0.405,0.42,0.628,0.65c0.252,0.198,0.515,0.412,0.795,0.619
				c0.302,0.178,0.59,0.4,0.925,0.555c0.329,0.166,0.66,0.339,1.013,0.467c0.342,0.153,0.696,0.275,1.047,0.392
				c0.347,0.128,0.704,0.204,1.042,0.305c0.685,0.164,1.328,0.312,1.888,0.396c1.115,0.191,1.872,0.244,1.872,0.244
				s-0.759,0.021-1.892-0.104c-1.131-0.119-2.636-0.419-4.052-1c-0.357-0.136-0.694-0.318-1.028-0.493
				c-0.339-0.164-0.634-0.396-0.939-0.583c-0.289-0.213-0.546-0.45-0.794-0.664c-0.218-0.246-0.424-0.479-0.615-0.695
				c-0.152-0.243-0.292-0.468-0.416-0.666c-0.133-0.192-0.172-0.396-0.244-0.544C44.507,135.817,44.437,135.642,44.437,135.642z"/>
		</g>
	</g>
	<g id="指示灯白底色">
		
			<rect x="59.727" y="112.034" transform="matrix(-0.9005 -0.4348 0.4348 -0.9005 63.0859 248.9384)" fill="#919191" width="0.584" height="10.438"/>
	</g>
	<g id="录音孔">
		<circle fill="#1B2B79" cx="105.458" cy="25.458" r="0.271"/>
	</g>
	<g id="指示灯">
		
			<rect x="59.539" y="111.659" transform="matrix(-0.9005 -0.4348 0.4348 -0.9005 62.8926 248.1442)" fill="#515151" width="0.584" height="10.438"/>
	</g>
</g>
</svg>
